<svg xmlns="http://www.w3.org/2000/svg" viewBox="0 0 812 148" width="812" height="148" role="img" aria-label="DEYMFLIX">
  <title>DEYMFLIX</title>
  <polygon points="78,24 121.3,49 121.3,99 78,124 34.7,99 34.7,49" fill="#e50914"/>
  <polygon points="65,52 65,96 103,74" fill="#ffffff"/>
  <g fill="#ffffff" color="#ffffff"><path d="M182 24 L182 124" fill="none" stroke="currentColor" stroke-width="8.8" stroke-linecap="round" stroke-linejoin="round"/><path d="M182 24 L187.69 24.27 L193.31 25.09 L198.81 26.45 L204.13 28.32 L209.2 30.7 L213.98 33.55 L218.4 36.84 L222.43 40.54 L226.01 44.61 L229.11 49 L231.7 53.66 L233.74 58.55 L235.21 63.6 L236.1 68.77 L236.4 74 L236.1 79.23 L235.21 84.4 L233.74 89.45 L231.7 94.34 L229.11 99 L226.01 103.39 L222.43 107.46 L218.4 111.16 L213.98 114.45 L209.2 117.3 L204.13 119.68 L198.81 121.55 L193.31 122.91 L187.69 123.73 L182 124" fill="none" stroke="currentColor" stroke-width="8.8" stroke-linecap="round" stroke-linejoin="round"/><path d="M271.2 24 L271.2 124" fill="none" stroke="currentColor" stroke-width="8.8" stroke-linecap="round" stroke-linejoin="round"/><path d="M271.2 27 L305.76 27" fill="none" stroke="currentColor" stroke-width="8.8" stroke-linecap="round" stroke-linejoin="round"/><path d="M271.2 74 L298.08 74" fill="none" stroke="currentColor" stroke-width="8.8" stroke-linecap="round" stroke-linejoin="round"/><path d="M271.2 121 L305.76 121" fill="none" stroke="currentColor" stroke-width="8.8" stroke-linecap="round" stroke-linejoin="round"/><path d="M344.34 24 L372.42 76" fill="none" stroke="currentColor" stroke-width="8.8" stroke-linecap="round" stroke-linejoin="round"/><path d="M400.5 24 L372.42 76" fill="none" stroke="currentColor" stroke-width="8.8" stroke-linecap="round" stroke-linejoin="round"/><path d="M372.42 76 L372.42 124" fill="none" stroke="currentColor" stroke-width="8.8" stroke-linecap="round" stroke-linejoin="round"/><path d="M434.9 124 L434.9 24" fill="none" stroke="currentColor" stroke-width="8.8" stroke-linecap="round" stroke-linejoin="round"/><path d="M434.9 24 L478.02 104" fill="none" stroke="currentColor" stroke-width="8.8" stroke-linecap="round" stroke-linejoin="round"/><path d="M478.02 104 L521.14 24" fill="none" stroke="currentColor" stroke-width="8.8" stroke-linecap="round" stroke-linejoin="round"/><path d="M521.14 24 L521.14 124" fill="none" stroke="currentColor" stroke-width="8.8" stroke-linecap="round" stroke-linejoin="round"/></g>
  <g fill="#e50914" color="#e50914"><path d="M541 24 L541 124" fill="none" stroke="currentColor" stroke-width="8.8" stroke-linecap="round" stroke-linejoin="round"/><path d="M541 27 L572.2 27" fill="none" stroke="currentColor" stroke-width="8.8" stroke-linecap="round" stroke-linejoin="round"/><path d="M541 74 L565 74" fill="none" stroke="currentColor" stroke-width="8.8" stroke-linecap="round" stroke-linejoin="round"/><path d="M611.1 24 L611.1 124" fill="none" stroke="currentColor" stroke-width="8.8" stroke-linecap="round" stroke-linejoin="round"/><path d="M611.1 121 L643.34 121" fill="none" stroke="currentColor" stroke-width="8.8" stroke-linecap="round" stroke-linejoin="round"/><path d="M682 24 L682 124" fill="none" stroke="currentColor" stroke-width="8.8" stroke-linecap="round" stroke-linejoin="round"/><path d="M712.34 24 L768.5 124" fill="none" stroke="currentColor" stroke-width="8.8" stroke-linecap="round" stroke-linejoin="round"/><path d="M768.5 24 L712.34 124" fill="none" stroke="currentColor" stroke-width="8.8" stroke-linecap="round" stroke-linejoin="round"/></g>
</svg>
